<svg width="3596" height="3438" viewBox="0 0 3596 3438" fill="none" xmlns="http://www.w3.org/2000/svg">
<path d="M927.999 2.08008C432.813 2.08008 31.3848 403.508 31.3848 898.694V2512.17C49.2565 2044.55 431.69 1668.72 904.649 1664.12L931.935 1663.85C1419.31 1659.1 1818.26 2050.35 1823 2537.72C1824.13 2517.97 1823.2 2557.8 1823 2537.72C1825 2513.29 1824.61 2548.33 1824.61 2523.39V898.694C1824.61 403.508 1423.19 2.08008 927.999 2.08008Z" fill="#FF22C1"/>
<rect x="3555.81" y="3437.65" width="1793.23" height="3417.92" rx="896.614" transform="rotate(180 3555.81 3437.65)" fill="#0500FF"/>
<rect x="3547.82" y="2.08008" width="1765.03" height="1792.31" rx="882.513" transform="rotate(89.4418 3547.82 2.08008)" fill="#FFDD66"/>
</svg>
